<svg xmlns="http://www.w3.org/2000/svg" viewBox="0 0 280 48">
  <defs>
    <clipPath id="vsh-squares">
      <rect x="3" y="3" width="90" height="90" rx="13"/>
      <rect x="107" y="3" width="90" height="90" rx="13"/>
      <rect x="3" y="107" width="90" height="90" rx="13"/>
      <rect x="107" y="107" width="90" height="90" rx="13"/>
    </clipPath>
  </defs>
  <!-- Icon mark scaled to 40px height -->
  <g transform="translate(0,4) scale(0.2)">
    <rect x="3" y="3" width="90" height="90" rx="13" fill="#F97316"/>
    <rect x="107" y="3" width="90" height="90" rx="13" fill="#FBBF24"/>
    <rect x="3" y="107" width="90" height="90" rx="13" fill="#1E3A8A"/>
    <rect x="107" y="107" width="90" height="90" rx="13" fill="#3B82F6"/>
    <path clip-path="url(#vsh-squares)" fill="#FFFFFF"
      d="M62 28 H196 V62 H120 L48 138 H138 V172 H4 V138 H80 L152 62 H62 Z"/>
  </g>
  <!-- Wordmark -->
  <text x="52" y="33" font-family="'Avenir Next', 'Futura', 'Century Gothic', system-ui, sans-serif"
    font-size="26" font-weight="700" letter-spacing="1.5">
    <tspan fill="#FFFFFF">Volt</tspan><tspan fill="#FBBF24">Sol</tspan>
  </text>
</svg>
